<?xml version="1.0" encoding="utf-8"?>
<!-- Generator: Adobe Illustrator 25.2.2, SVG Export Plug-In . SVG Version: 6.00 Build 0)  -->
<svg version="1.2" baseProfile="tiny" id="Livello_1"
	 xmlns="http://www.w3.org/2000/svg" xmlns:xlink="http://www.w3.org/1999/xlink" x="0px" y="0px" viewBox="0 0 1920 1080"
	 overflow="visible" xml:space="preserve">
<path d="M883,474c0,14.9-6.6,28.3-16.9,37.5c-7.1,6.2-15.9,10.5-25.7,12c-2.4,0.4-4.8,0.5-7.3,0.5c-12.7,0-24.2-4.7-33.1-12.5
	c-10.4-9.2-16.9-22.6-16.9-37.5s6.6-28.3,16.9-37.5c8.8-7.8,20.4-12.5,33.1-12.5c2.5,0,4.9,0.2,7.3,0.5c9.8,1.4,18.6,5.7,25.7,12
	C876.4,445.7,883,459.1,883,474z"/>
<path d="M1232,474c0,56.3-18.6,108.2-50,150c-45.6,60.7-118.2,100-200,100H783V563h2c6.1,20.8,25.3,36,48,36
	c16.8,0,31.8-8.3,40.8-21.1c3.2-4.5,5.6-9.5,7.2-14.9h2v61h119.4c1.7,0.1,3.4,0.2,5.1,0.2s3.4-0.1,5.1-0.2
	c47.3-2.7,84.9-41.9,84.9-89.8c0-23.1-8.7-44.1-23-60.1c14.3-15.9,23-37,23-60.1c0-49.7-40.3-90-90-90H883v61h-2
	c-1.6-5.4-4-10.4-7.2-14.9c-9-12.8-24-21.1-40.8-21.1c-22.8,0-42,15.2-48,36h-2V224h199c81.8,0,154.4,39.3,200,100
	C1213.4,365.8,1232,417.7,1232,474z"/>
<path d="M1012.6,624c-1.7,0.1-3.4,0.2-5.1,0.2s-3.4-0.1-5.1-0.2H1012.6z"/>
</svg>
